<svg version="1.1" xmlns="http://www.w3.org/2000/svg" xmlns:xlink="http://www.w3.org/1999/xlink" width="1904" height="948"><defs><clipPath id="srVztAzHrszK"><path fill="none" stroke="none" d=" M 0 0 L 1904 0 L 1904 948 L 0 948 L 0 0 Z"/></clipPath></defs><g transform="scale(1,1)" clip-path="url(#srVztAzHrszK)"><g><rect fill="rgb(255,255,255)" stroke="none" x="0" y="0" width="1904" height="948" fill-opacity="1"/><path fill="none" stroke="rgb(192,192,192)" paint-order="fill stroke markers" d=" M 825.592744047666 440.30737222563056 C 825.592744047666 440.30737222563056 825.592744047666 440.30737222563056 825.592744047666 440.30737222563056 C 825.592744047666 440.30737222563056 825.592744047666 440.30737222563056 825.592744047666 440.30737222563056 C 825.592744047666 440.30737222563056 825.592744047666 440.30737222563056 825.592744047666 440.30737222563056 C 825.592744047666 440.30737222563056 825.592744047666 440.30737222563056 825.592744047666 440.30737222563056 Z" stroke-opacity="1" stroke-linecap="round" stroke-linejoin="round" stroke-miterlimit="10"/><path fill="none" stroke="rgb(192,192,192)" paint-order="fill stroke markers" d=" M 870.6769369245956 440.30737222563056 C 870.6769369245956 465.2066844099888 850.4920562320243 485.3915651025601 825.592744047666 485.3915651025601 C 800.6934318633078 485.3915651025601 780.5085511707365 465.2066844099888 780.5085511707365 440.30737222563056 C 780.5085511707365 415.4080600412723 800.6934318633078 395.223179348701 825.592744047666 395.223179348701 C 850.4920562320243 395.223179348701 870.6769369245956 415.4080600412723 870.6769369245956 440.30737222563056 Z" stroke-opacity="1" stroke-linecap="round" stroke-linejoin="round" stroke-miterlimit="10"/><path fill="none" stroke="rgb(192,192,192)" paint-order="fill stroke markers" d=" M 915.7611298015249 440.3073722256306 C 915.7611298015249 490.10599659434706 875.3913684163824 530.4757579794896 825.592744047666 530.4757579794896 C 775.7941196789494 530.4757579794896 735.4243582938069 490.10599659434706 735.4243582938069 440.3073722256306 C 735.4243582938069 390.50874785691406 775.7941196789494 350.13898647177155 825.592744047666 350.13898647177155 C 875.3913684163824 350.13898647177155 915.7611298015249 390.50874785691406 915.7611298015249 440.3073722256306 Z" stroke-opacity="1" stroke-linecap="round" stroke-linejoin="round" stroke-miterlimit="10"/><path fill="none" stroke="rgb(192,192,192)" paint-order="fill stroke markers" d=" M 960.8453226784545 440.30737222563056 C 960.8453226784545 515.0053087787053 900.2906806007408 575.5599508564192 825.592744047666 575.5599508564192 C 750.8948074945912 575.5599508564192 690.3401654168774 515.0053087787053 690.3401654168774 440.30737222563056 C 690.3401654168774 365.6094356725558 750.8948074945912 305.054793594842 825.592744047666 305.054793594842 C 900.2906806007408 305.054793594842 960.8453226784545 365.6094356725558 960.8453226784545 440.30737222563056 Z" stroke-opacity="1" stroke-linecap="round" stroke-linejoin="round" stroke-miterlimit="10"/><path fill="none" stroke="rgb(192,192,192)" paint-order="fill stroke markers" d=" M 1005.929515555384 440.30737222563056 C 1005.929515555384 539.9046209630635 925.1899927850989 620.6441437333486 825.592744047666 620.6441437333486 C 725.9954953102329 620.6441437333486 645.2559725399478 539.9046209630635 645.2559725399478 440.30737222563056 C 645.2559725399478 340.71012348819755 725.9954953102329 259.9706007179125 825.592744047666 259.9706007179125 C 925.1899927850989 259.9706007179125 1005.929515555384 340.71012348819755 1005.929515555384 440.30737222563056 Z" stroke-opacity="1" stroke-linecap="round" stroke-linejoin="round" stroke-miterlimit="10"/><path fill="none" stroke="rgb(192,192,192)" paint-order="fill stroke markers" d=" M 1051.0137084323137 440.30737222563056 C 1051.0137084323137 564.8039331474218 950.0893049694573 665.7283366102781 825.592744047666 665.7283366102781 C 701.0961831258746 665.7283366102781 600.1717796630184 564.8039331474218 600.1717796630184 440.30737222563056 C 600.1717796630184 315.8108113038393 701.0961831258746 214.88640784098294 825.592744047666 214.88640784098294 C 950.0893049694573 214.88640784098294 1051.0137084323137 315.8108113038393 1051.0137084323137 440.30737222563056 Z" stroke-opacity="1" stroke-linecap="round" stroke-linejoin="round" stroke-miterlimit="10"/><path fill="none" stroke="rgb(192,192,192)" paint-order="fill stroke markers" d=" M 1096.0979013092433 440.30737222563056 C 1096.0979013092433 589.7032453317801 974.9886171538155 710.8125294872077 825.592744047666 710.8125294872077 C 676.1968709415165 710.8125294872077 555.0875867860889 589.7032453317801 555.0875867860889 440.30737222563056 C 555.0875867860889 290.911499119481 676.1968709415165 169.8022149640534 825.592744047666 169.8022149640534 C 974.9886171538155 169.8022149640534 1096.0979013092433 290.911499119481 1096.0979013092433 440.30737222563056 Z" stroke-opacity="1" stroke-linecap="round" stroke-linejoin="round" stroke-miterlimit="10"/><path fill="none" stroke="rgb(192,192,192)" paint-order="fill stroke markers" d=" M 1141.1820941861727 440.30737222563056 C 1141.1820941861727 614.6025575161384 999.8879293381738 755.8967223641373 825.592744047666 755.8967223641373 C 651.2975587571582 755.8967223641373 510.0033939091593 614.6025575161384 510.0033939091593 440.30737222563056 C 510.0033939091593 266.0121869351227 651.2975587571582 124.71802208712387 825.592744047666 124.71802208712387 C 999.8879293381738 124.71802208712387 1141.1820941861727 266.0121869351227 1141.1820941861727 440.30737222563056 Z" stroke-opacity="1" stroke-linecap="round" stroke-linejoin="round" stroke-miterlimit="10"/><path fill="none" stroke="rgb(192,192,192)" paint-order="fill stroke markers" d=" M 1186.2662870631023 440.30737222563056 C 1186.2662870631023 639.5018697004966 1024.787241522532 800.9809152410668 825.592744047666 800.9809152410668 C 626.3982465728 800.9809152410668 464.91920103222975 639.5018697004966 464.91920103222975 440.30737222563056 C 464.91920103222975 241.1128747507645 626.3982465728 79.63382921019434 825.592744047666 79.63382921019434 C 1024.787241522532 79.63382921019434 1186.2662870631023 241.1128747507645 1186.2662870631023 440.30737222563056 Z" stroke-opacity="1" stroke-linecap="round" stroke-linejoin="round" stroke-miterlimit="10"/><path fill="none" stroke="rgb(192,192,192)" paint-order="fill stroke markers" d=" M 1231.3504799400316 440.30737222563056 C 1231.3504799400316 664.4011818848549 1049.6865537068902 846.0651081179963 825.592744047666 846.0651081179963 C 601.4989343884416 846.0651081179963 419.8350081553002 664.4011818848549 419.8350081553002 440.30737222563056 C 419.8350081553002 216.2135625664062 601.4989343884416 34.5496363332648 825.592744047666 34.5496363332648 C 1049.6865537068902 34.5496363332648 1231.3504799400316 216.2135625664062 1231.3504799400316 440.30737222563056 Z" stroke-opacity="1" stroke-linecap="round" stroke-linejoin="round" stroke-miterlimit="10"/><path fill="none" stroke="rgb(192,192,192)" paint-order="fill stroke markers" d=" M 1276.4346728169612 440.30737222563056 C 1276.4346728169612 689.3004940692131 1074.5858658912484 891.1493009949259 825.592744047666 891.1493009949259 C 576.5996222040834 891.1493009949259 374.7508152783707 689.3004940692131 374.7508152783707 440.30737222563056 C 374.7508152783707 191.31425038204796 576.5996222040834 -10.534556543664735 825.592744047666 -10.534556543664735 C 1074.5858658912484 -10.534556543664735 1276.4346728169612 191.31425038204796 1276.4346728169612 440.30737222563056 Z" stroke-opacity="1" stroke-linecap="round" stroke-linejoin="round" stroke-miterlimit="10"/><path fill="none" stroke="rgb(192,192,192)" paint-order="fill stroke markers" d=" M 1321.5188656938908 440.30737222563056 C 1321.5188656938908 714.1998062535713 1099.4851780756067 936.2334938718554 825.592744047666 936.2334938718554 C 551.7003100197251 936.2334938718554 329.66662240144115 714.1998062535713 329.66662240144115 440.30737222563056 C 329.66662240144115 166.41493819768968 551.7003100197251 -55.61874942059427 825.592744047666 -55.61874942059427 C 1099.4851780756067 -55.61874942059427 1321.5188656938908 166.41493819768968 1321.5188656938908 440.30737222563056 Z" stroke-opacity="1" stroke-linecap="round" stroke-linejoin="round" stroke-miterlimit="10"/><path fill="none" stroke="rgb(192,192,192)" paint-order="fill stroke markers" d=" M 1366.6030585708204 440.30737222563056 C 1366.6030585708204 739.0991184379295 1124.3844902599649 981.3176867487848 825.592744047666 981.3176867487848 C 526.8009978353668 981.3176867487848 284.58242952451167 739.0991184379295 284.58242952451167 440.30737222563056 C 284.58242952451167 141.51562601333146 526.8009978353668 -100.70294229752375 825.592744047666 -100.70294229752375 C 1124.3844902599649 -100.70294229752375 1366.6030585708204 141.51562601333146 1366.6030585708204 440.30737222563056 Z" stroke-opacity="1" stroke-linecap="round" stroke-linejoin="round" stroke-miterlimit="10"/><path fill="none" stroke="rgb(192,192,192)" paint-order="fill stroke markers" d=" M 1411.6872514477498 440.30737222563056 C 1411.6872514477498 763.9984306222877 1149.283802444323 1026.4018796257144 825.592744047666 1026.4018796257144 C 501.9016856510086 1026.4018796257144 239.4982366475822 763.9984306222877 239.4982366475822 440.30737222563056 C 239.4982366475822 116.6163138289732 501.9016856510086 -145.78713517445323 825.592744047666 -145.78713517445323 C 1149.283802444323 -145.78713517445323 1411.6872514477498 116.6163138289732 1411.6872514477498 440.30737222563056 Z" stroke-opacity="1" stroke-linecap="round" stroke-linejoin="round" stroke-miterlimit="10"/><path fill="none" stroke="rgb(192,192,192)" paint-order="fill stroke markers" d=" M 1456.7714443246791 440.30737222563056 C 1456.7714443246791 788.897742806646 1174.1831146286813 1071.4860725026438 825.592744047666 1071.4860725026438 C 477.0023734666504 1071.4860725026438 194.4140437706527 788.897742806646 194.4140437706527 440.30737222563056 C 194.4140437706527 91.71700164461498 477.0023734666504 -190.8713280513827 825.592744047666 -190.8713280513827 C 1174.1831146286813 -190.8713280513827 1456.7714443246791 91.71700164461498 1456.7714443246791 440.30737222563056 Z" stroke-opacity="1" stroke-linecap="round" stroke-linejoin="round" stroke-miterlimit="10"/><path fill="none" stroke="rgb(192,192,192)" paint-order="fill stroke markers" d=" M 1501.8556372016087 440.30737222563056 C 1501.8556372016087 813.7970549910044 1199.0824268130398 1116.5702653795734 825.592744047666 1116.5702653795734 C 452.1030612822922 1116.5702653795734 149.32985089372323 813.7970549910044 149.32985089372323 440.30737222563056 C 149.32985089372323 66.81768946025676 452.1030612822922 -235.95552092831218 825.592744047666 -235.95552092831218 C 1199.0824268130398 -235.95552092831218 1501.8556372016087 66.81768946025676 1501.8556372016087 440.30737222563056 Z" stroke-opacity="1" stroke-linecap="round" stroke-linejoin="round" stroke-miterlimit="10"/><path fill="none" stroke="rgb(192,192,192)" paint-order="fill stroke markers" d=" M 1546.9398300785383 440.30737222563056 C 1546.9398300785383 838.6963671753624 1223.9817389973978 1161.6544582565027 825.592744047666 1161.6544582565027 C 427.20374909793395 1161.6544582565027 104.24565801679375 838.6963671753624 104.24565801679375 440.30737222563056 C 104.24565801679375 41.918377275898536 427.20374909793395 -281.03971380524166 825.592744047666 -281.03971380524166 C 1223.9817389973978 -281.03971380524166 1546.9398300785383 41.918377275898536 1546.9398300785383 440.30737222563056 Z" stroke-opacity="1" stroke-linecap="round" stroke-linejoin="round" stroke-miterlimit="10"/><path fill="none" stroke="rgb(192,192,192)" paint-order="fill stroke markers" d=" M 1592.0240229554677 440.30737222563056 C 1592.0240229554677 863.5956793597209 1248.8810511817562 1206.7386511334323 825.592744047666 1206.7386511334323 C 402.3044369135757 1206.7386511334323 59.161465139864276 863.5956793597209 59.161465139864276 440.30737222563056 C 59.161465139864276 17.019065091540313 402.3044369135757 -326.12390668217114 825.592744047666 -326.12390668217114 C 1248.8810511817562 -326.12390668217114 1592.0240229554677 17.019065091540313 1592.0240229554677 440.30737222563056 Z" stroke-opacity="1" stroke-linecap="round" stroke-linejoin="round" stroke-miterlimit="10"/><path fill="none" stroke="rgb(192,192,192)" paint-order="fill stroke markers" d=" M 1637.108215832397 440.30737222563056 C 1637.108215832397 888.4949915440789 1273.7803633661142 1251.8228440103617 825.592744047666 1251.8228440103617 C 377.4051247292175 1251.8228440103617 14.077272262934798 888.4949915440789 14.077272262934798 440.30737222563056 C 14.077272262934798 -7.8802470928179105 377.4051247292175 -371.2080995591006 825.592744047666 -371.2080995591006 C 1273.7803633661142 -371.2080995591006 1637.108215832397 -7.8802470928179105 1637.108215832397 440.30737222563056 Z" stroke-opacity="1" stroke-linecap="round" stroke-linejoin="round" stroke-miterlimit="10"/><path fill="none" stroke="rgb(192,192,192)" paint-order="fill stroke markers" d=" M 1682.1924087093266 440.30737222563056 C 1682.1924087093266 913.3943037284373 1298.6796755504727 1296.9070368872913 825.592744047666 1296.9070368872913 C 352.5058125448592 1296.9070368872913 -31.00692061399468 913.3943037284373 -31.00692061399468 440.30737222563056 C -31.00692061399468 -32.77955927717619 352.5058125448592 -416.2922924360301 825.592744047666 -416.2922924360301 C 1298.6796755504727 -416.2922924360301 1682.1924087093266 -32.77955927717619 1682.1924087093266 440.30737222563056 Z" stroke-opacity="1" stroke-linecap="round" stroke-linejoin="round" stroke-miterlimit="10"/><path fill="none" stroke="rgb(192,192,192)" paint-order="fill stroke markers" d=" M 1727.2766015862562 440.30737222563056 C 1727.2766015862562 938.2936159127953 1323.5789877348307 1341.9912297642206 825.592744047666 1341.9912297642206 C 327.606500360501 1341.9912297642206 -76.09111349092416 938.2936159127953 -76.09111349092416 440.30737222563056 C -76.09111349092416 -57.67887146153441 327.606500360501 -461.3764853129596 825.592744047666 -461.3764853129596 C 1323.5789877348307 -461.3764853129596 1727.2766015862562 -57.67887146153441 1727.2766015862562 440.30737222563056 Z" stroke-opacity="1" stroke-linecap="round" stroke-linejoin="round" stroke-miterlimit="10"/><path fill="none" stroke="rgb(192,192,192)" paint-order="fill stroke markers" d=" M 1772.3607944631856 440.30737222563056 C 1772.3607944631856 963.1929280971538 1348.478299919189 1387.0754226411502 825.592744047666 1387.0754226411502 C 302.7071881761428 1387.0754226411502 -121.17530636785364 963.1929280971538 -121.17530636785364 440.30737222563056 C -121.17530636785364 -82.57818364589264 302.7071881761428 -506.46067818988905 825.592744047666 -506.46067818988905 C 1348.478299919189 -506.46067818988905 1772.3607944631856 -82.57818364589264 1772.3607944631856 440.30737222563056 Z" stroke-opacity="1" stroke-linecap="round" stroke-linejoin="round" stroke-miterlimit="10"/><path fill="none" stroke="rgb(192,192,192)" paint-order="fill stroke markers" d=" M 1817.444987340115 440.3073722256305 C 1817.444987340115 988.0922402815117 1373.377612103547 1432.1596155180796 825.592744047666 1432.1596155180796 C 277.80787599178456 1432.1596155180796 -166.25949924478311 988.0922402815117 -166.25949924478311 440.3073722256305 C -166.25949924478311 -107.47749583025092 277.80787599178456 -551.5448710668186 825.592744047666 -551.5448710668186 C 1373.377612103547 -551.5448710668186 1817.444987340115 -107.47749583025092 1817.444987340115 440.3073722256305 Z" stroke-opacity="1" stroke-linecap="round" stroke-linejoin="round" stroke-miterlimit="10"/><path fill="none" stroke="rgb(192,192,192)" paint-order="fill stroke markers" d=" M 1862.5291802170445 440.3073722256306 C 1862.5291802170445 1012.9915524658702 1398.2769242879056 1477.2438083950092 825.592744047666 1477.2438083950092 C 252.90856380742633 1477.2438083950092 -211.3436921217126 1012.9915524658702 -211.3436921217126 440.3073722256306 C -211.3436921217126 -132.37680801460903 252.90856380742633 -596.629063943748 825.592744047666 -596.629063943748 C 1398.2769242879056 -596.629063943748 1862.5291802170445 -132.37680801460903 1862.5291802170445 440.3073722256306 Z" stroke-opacity="1" stroke-linecap="round" stroke-linejoin="round" stroke-miterlimit="10"/><path fill="none" stroke="rgb(192,192,192)" paint-order="fill stroke markers" d=" M 1907.6133730939741 440.3073722256306 C 1907.6133730939741 1037.8908646502284 1423.1762364722638 1522.3280012719388 825.592744047666 1522.3280012719388 C 228.00925162306805 1522.3280012719388 -256.4278849986422 1037.8908646502284 -256.4278849986422 440.3073722256306 C -256.4278849986422 -157.2761201989673 228.00925162306805 -641.7132568206775 825.592744047666 -641.7132568206775 C 1423.1762364722638 -641.7132568206775 1907.6133730939741 -157.2761201989673 1907.6133730939741 440.3073722256306 Z" stroke-opacity="1" stroke-linecap="round" stroke-linejoin="round" stroke-miterlimit="10"/><path fill="none" stroke="rgb(192,192,192)" paint-order="fill stroke markers" d=" M 1952.6975659709037 440.3073722256306 C 1952.6975659709037 1062.7901768345866 1448.075548656622 1567.4121941488684 825.592744047666 1567.4121941488684 C 203.10993943870972 1567.4121941488684 -301.5120778755718 1062.7901768345866 -301.5120778755718 440.3073722256306 C -301.5120778755718 -182.17543238332564 203.10993943870972 -686.7974496976071 825.592744047666 -686.7974496976071 C 1448.075548656622 -686.7974496976071 1952.6975659709037 -182.17543238332564 1952.6975659709037 440.3073722256306 Z" stroke-opacity="1" stroke-linecap="round" stroke-linejoin="round" stroke-miterlimit="10"/><path fill="none" stroke="rgb(192,192,192)" paint-order="fill stroke markers" d=" M 1997.7817588478333 440.3073722256306 C 1997.7817588478333 1087.689489018945 1472.9748608409805 1612.496387025798 825.592744047666 1612.496387025798 C 178.2106272543515 1612.496387025798 -346.59627075250137 1087.689489018945 -346.59627075250137 440.3073722256306 C -346.59627075250137 -207.07474456768387 178.2106272543515 -731.8816425745367 825.592744047666 -731.8816425745367 C 1472.9748608409805 -731.8816425745367 1997.7817588478333 -207.07474456768387 1997.7817588478333 440.3073722256306 Z" stroke-opacity="1" stroke-linecap="round" stroke-linejoin="round" stroke-miterlimit="10"/><path fill="none" stroke="rgb(192,192,192)" paint-order="fill stroke markers" d=" M 0 440.30737222563056 L 1904 440.30737222563056" stroke-opacity="1" stroke-linecap="round" stroke-linejoin="round" stroke-miterlimit="10"/><path fill="none" stroke="rgb(192,192,192)" paint-order="fill stroke markers" d=" M 0 916.9635652425522 L 1904 -182.31134729449508" stroke-opacity="1" stroke-linecap="round" stroke-linejoin="round" stroke-miterlimit="10"/><path fill="none" stroke="rgb(192,192,192)" paint-order="fill stroke markers" d=" M 0 1870.2759512763955 L 1904 -1427.548786334746" stroke-opacity="1" stroke-linecap="round" stroke-linejoin="round" stroke-miterlimit="10"/><path fill="none" stroke="rgb(192,192,192)" paint-order="fill stroke markers" d=" M 825.592744047666 0 L 825.592744047666 948" stroke-opacity="1" stroke-linecap="round" stroke-linejoin="round" stroke-miterlimit="10"/><path fill="none" stroke="rgb(192,192,192)" paint-order="fill stroke markers" d=" M 0 -989.6612068251354 L 1904 2308.163530786009" stroke-opacity="1" stroke-linecap="round" stroke-linejoin="round" stroke-miterlimit="10"/><path fill="none" stroke="rgb(192,192,192)" paint-order="fill stroke markers" d=" M 0 -36.348820791291644 L 1904 1062.9260917457568" stroke-opacity="1" stroke-linecap="round" stroke-linejoin="round" stroke-miterlimit="10"/><path fill="none" stroke="rgb(192,192,192)" paint-order="fill stroke markers" d=" M 0 440.3073722256301 L 1904 440.3073722256312" stroke-opacity="1" stroke-linecap="round" stroke-linejoin="round" stroke-miterlimit="10"/><path fill="none" stroke="rgb(0,0,0)" paint-order="fill stroke markers" d=" M 825.5 2.5 L 825.5 948.5" stroke-opacity="1" stroke-miterlimit="10"/><path fill="none" stroke="rgb(0,0,0)" paint-order="fill stroke markers" d=" M 825.5 1.5 L 821.5 5.5" stroke-opacity="1" stroke-miterlimit="10"/><path fill="none" stroke="rgb(0,0,0)" paint-order="fill stroke markers" d=" M 825.5 1.5 L 829.5 5.5" stroke-opacity="1" stroke-miterlimit="10"/><path fill="none" stroke="rgb(0,0,0)" paint-order="fill stroke markers" d=" M 0.5 440.5 L 1902.5 440.5" stroke-opacity="1" stroke-miterlimit="10"/><path fill="none" stroke="rgb(0,0,0)" paint-order="fill stroke markers" d=" M 1903.5 440.5 L 1899.5 436.5" stroke-opacity="1" stroke-miterlimit="10"/><path fill="none" stroke="rgb(0,0,0)" paint-order="fill stroke markers" d=" M 1903.5 440.5 L 1899.5 444.5" stroke-opacity="1" stroke-miterlimit="10"/><path fill="rgb(0,100,0)" stroke="none" paint-order="stroke fill markers" d=" M 910.592744047666 440.30737222563056 C 910.592744047666 425.38675583239234 906.6652115659624 410.7290050622974 899.2049033693432 397.80737222563056 L 825.592744047666 440.30737222563056 Z" fill-opacity="0.09803921568627451"/><path fill="none" stroke="rgb(0,100,0)" paint-order="fill stroke markers" d=" M 910.592744047666 440.30737222563056 C 910.592744047666 425.38675583239234 906.6652115659624 410.7290050622974 899.2049033693432 397.80737222563056 L 825.592744047666 440.30737222563056 Z" stroke-opacity="0.6980392156862745" stroke-linecap="round" stroke-linejoin="round" stroke-miterlimit="10" stroke-width="2.5"/><text fill="rgb(0,100,0)" stroke="none" font-family="geogebra-sans-serif, sans-serif" font-size="16px" font-style="normal" font-weight="normal" text-decoration="normal" x="928" y="419" text-anchor="start" dominant-baseline="alphabetic" fill-opacity="1">θ</text><text fill="none" stroke="rgb(255,255,255)" font-family="geogebra-sans-serif, sans-serif" font-size="16px" font-style="normal" font-weight="normal" text-decoration="normal" x="928" y="419" text-anchor="start" dominant-baseline="alphabetic" stroke-opacity="1" stroke-linejoin="bevel" stroke-miterlimit="10" stroke-width="3">θ</text><text fill="rgb(0,100,0)" stroke="none" font-family="geogebra-sans-serif, sans-serif" font-size="16px" font-style="normal" font-weight="normal" text-decoration="normal" x="928" y="419" text-anchor="start" dominant-baseline="alphabetic" fill-opacity="1">θ</text><path fill="none" stroke="rgb(0,0,0)" paint-order="fill stroke markers" d=" M -5 919.8503165885004 L 1596.887737727444 -5" stroke-opacity="0.6980392156862745" stroke-linecap="round" stroke-linejoin="round" stroke-miterlimit="10" stroke-width="2.5"/><text fill="rgb(0,0,0)" stroke="none" font-family="geogebra-sans-serif, sans-serif" font-size="16px" font-style="normal" font-weight="normal" text-decoration="normal" x="67" y="852" text-anchor="start" dominant-baseline="alphabetic" fill-opacity="1">l</text><text fill="none" stroke="rgb(255,255,255)" font-family="geogebra-sans-serif, sans-serif" font-size="16px" font-style="normal" font-weight="normal" text-decoration="normal" x="67" y="852" text-anchor="start" dominant-baseline="alphabetic" stroke-opacity="1" stroke-linejoin="bevel" stroke-miterlimit="10" stroke-width="3">l</text><text fill="rgb(0,0,0)" stroke="none" font-family="geogebra-sans-serif, sans-serif" font-size="16px" font-style="normal" font-weight="normal" text-decoration="normal" x="67" y="852" text-anchor="start" dominant-baseline="alphabetic" fill-opacity="1">l</text><path fill="none" stroke="rgb(0,0,0)" paint-order="fill stroke markers" d=" M 825.592744047666 440.30737222563056 L 1008.6886700973758 334.59689003330675" stroke-opacity="1" stroke-linecap="round" stroke-linejoin="round" stroke-miterlimit="10"/><path fill="rgb(0,0,0)" stroke="none" paint-order="stroke fill markers" fill-rule="evenodd" d=" M 1020.813025750358 327.59689003330675 L 1010.4386700973758 337.6279789465523 L 1006.9386700973758 331.5658011200612 Z" fill-opacity="1"/><text fill="rgb(0,0,0)" stroke="none" font-family="geogebra-sans-serif, sans-serif" font-size="16px" font-style="normal" font-weight="normal" text-decoration="normal" x="977" y="334" text-anchor="start" dominant-baseline="alphabetic" fill-opacity="1">u,u'</text><text fill="none" stroke="rgb(255,255,255)" font-family="geogebra-sans-serif, sans-serif" font-size="16px" font-style="normal" font-weight="normal" text-decoration="normal" x="977" y="334" text-anchor="start" dominant-baseline="alphabetic" stroke-opacity="1" stroke-linejoin="bevel" stroke-miterlimit="10" stroke-width="3">u,u'</text><text fill="rgb(0,0,0)" stroke="none" font-family="geogebra-sans-serif, sans-serif" font-size="16px" font-style="normal" font-weight="normal" text-decoration="normal" x="977" y="334" text-anchor="start" dominant-baseline="alphabetic" fill-opacity="1">u,u'</text><path fill="none" stroke="rgb(0,0,0)" paint-order="fill stroke markers" d=" M 825.592744047666 440.30737222563056 L 719.8822618553422 257.2114461759207" stroke-opacity="1" stroke-linecap="round" stroke-linejoin="round" stroke-miterlimit="10"/><path fill="rgb(0,0,0)" stroke="none" paint-order="stroke fill markers" fill-rule="evenodd" d=" M 712.8822618553422 245.08709052293855 L 722.9133507685877 255.46144617592068 L 716.8511729420967 258.9614461759207 Z" fill-opacity="1"/><text fill="rgb(0,0,0)" stroke="none" font-family="geogebra-sans-serif, sans-serif" font-size="16px" font-style="normal" font-weight="normal" text-decoration="normal" x="766" y="344" text-anchor="start" dominant-baseline="alphabetic" fill-opacity="1">v</text><text fill="none" stroke="rgb(255,255,255)" font-family="geogebra-sans-serif, sans-serif" font-size="16px" font-style="normal" font-weight="normal" text-decoration="normal" x="766" y="344" text-anchor="start" dominant-baseline="alphabetic" stroke-opacity="1" stroke-linejoin="bevel" stroke-miterlimit="10" stroke-width="3">v</text><text fill="rgb(0,0,0)" stroke="none" font-family="geogebra-sans-serif, sans-serif" font-size="16px" font-style="normal" font-weight="normal" text-decoration="normal" x="766" y="344" text-anchor="start" dominant-baseline="alphabetic" fill-opacity="1">v</text><path fill="none" stroke="rgb(0,0,0)" paint-order="fill stroke markers" d=" M 825.592744047666 440.30737222563056 L 931.3032262399897 623.4032982753405" stroke-opacity="1" stroke-linecap="round" stroke-linejoin="round" stroke-miterlimit="10"/><path fill="rgb(0,0,0)" stroke="none" paint-order="stroke fill markers" fill-rule="evenodd" d=" M 938.3032262399897 635.5276539283226 L 928.2721373267442 625.1532982753405 L 934.3343151532353 621.6532982753405 Z" fill-opacity="1"/><text fill="rgb(0,0,0)" stroke="none" font-family="geogebra-sans-serif, sans-serif" font-size="16px" font-style="normal" font-weight="normal" text-decoration="normal" x="884" y="536" text-anchor="start" dominant-baseline="alphabetic" fill-opacity="1">v'</text><text fill="none" stroke="rgb(255,255,255)" font-family="geogebra-sans-serif, sans-serif" font-size="16px" font-style="normal" font-weight="normal" text-decoration="normal" x="884" y="536" text-anchor="start" dominant-baseline="alphabetic" stroke-opacity="1" stroke-linejoin="bevel" stroke-miterlimit="10" stroke-width="3">v'</text><text fill="rgb(0,0,0)" stroke="none" font-family="geogebra-sans-serif, sans-serif" font-size="16px" font-style="normal" font-weight="normal" text-decoration="normal" x="884" y="536" text-anchor="start" dominant-baseline="alphabetic" fill-opacity="1">v'</text><path fill="rgb(77,77,255)" stroke="none" paint-order="stroke fill markers" d=" M 830.592744047666 440.30737222563056 C 830.592744047666 443.0687959747845 828.35416779682 445.30737222563056 825.592744047666 445.30737222563056 C 822.831320298512 445.30737222563056 820.592744047666 443.0687959747845 820.592744047666 440.30737222563056 C 820.592744047666 437.5459484764766 822.831320298512 435.30737222563056 825.592744047666 435.30737222563056 C 828.35416779682 435.30737222563056 830.592744047666 437.5459484764766 830.592744047666 440.30737222563056 Z" fill-opacity="1"/><path fill="none" stroke="rgb(0,0,0)" paint-order="fill stroke markers" d=" M 830.592744047666 440.30737222563056 C 830.592744047666 443.0687959747845 828.35416779682 445.30737222563056 825.592744047666 445.30737222563056 C 822.831320298512 445.30737222563056 820.592744047666 443.0687959747845 820.592744047666 440.30737222563056 C 820.592744047666 437.5459484764766 822.831320298512 435.30737222563056 825.592744047666 435.30737222563056 C 828.35416779682 435.30737222563056 830.592744047666 437.5459484764766 830.592744047666 440.30737222563056 Z" stroke-opacity="1" stroke-linecap="round" stroke-linejoin="round" stroke-miterlimit="10"/><text fill="rgb(77,77,255)" stroke="none" font-family="geogebra-sans-serif, sans-serif" font-size="16px" font-style="normal" font-weight="normal" text-decoration="normal" x="830" y="430" text-anchor="start" dominant-baseline="alphabetic" fill-opacity="1">O</text><text fill="none" stroke="rgb(255,255,255)" font-family="geogebra-sans-serif, sans-serif" font-size="16px" font-style="normal" font-weight="normal" text-decoration="normal" x="830" y="430" text-anchor="start" dominant-baseline="alphabetic" stroke-opacity="1" stroke-linejoin="bevel" stroke-miterlimit="10" stroke-width="3">O</text><text fill="rgb(77,77,255)" stroke="none" font-family="geogebra-sans-serif, sans-serif" font-size="16px" font-style="normal" font-weight="normal" text-decoration="normal" x="830" y="430" text-anchor="start" dominant-baseline="alphabetic" fill-opacity="1">O</text></g></g></svg>