<svg version="1.1" xmlns="http://www.w3.org/2000/svg" xmlns:xlink="http://www.w3.org/1999/xlink" width="1904" height="948"><defs><clipPath id="tGBPzTlEPatJ"><path fill="none" stroke="none" d=" M 0 0 L 1904 0 L 1904 948 L 0 948 L 0 0 Z"/></clipPath></defs><g transform="scale(1,1)" clip-path="url(#tGBPzTlEPatJ)"><g><rect fill="rgb(255,255,255)" stroke="none" x="0" y="0" width="1904" height="948" fill-opacity="1"/><path fill="none" stroke="rgb(192,192,192)" paint-order="fill stroke markers" d=" M 773.2621853072077 575.857370124688 C 773.2621853072077 575.857370124688 773.2621853072077 575.857370124688 773.2621853072077 575.857370124688 C 773.2621853072077 575.857370124688 773.2621853072077 575.857370124688 773.2621853072077 575.857370124688 C 773.2621853072077 575.857370124688 773.2621853072077 575.857370124688 773.2621853072077 575.857370124688 C 773.2621853072077 575.857370124688 773.2621853072077 575.857370124688 773.2621853072077 575.857370124688 Z" stroke-opacity="1" stroke-linecap="round" stroke-linejoin="round" stroke-miterlimit="10"/><path fill="none" stroke="rgb(192,192,192)" paint-order="fill stroke markers" d=" M 832.8501168974033 575.857370124688 C 832.8501168974033 608.7668760159137 806.1716911984333 635.4453017148836 773.2621853072077 635.4453017148836 C 740.3526794159822 635.4453017148836 713.6742537170121 608.7668760159137 713.6742537170121 575.857370124688 C 713.6742537170121 542.9478642334625 740.3526794159822 516.2694385344925 773.2621853072077 516.2694385344925 C 806.1716911984333 516.2694385344925 832.8501168974033 542.9478642334625 832.8501168974033 575.857370124688 Z" stroke-opacity="1" stroke-linecap="round" stroke-linejoin="round" stroke-miterlimit="10"/><path fill="none" stroke="rgb(192,192,192)" paint-order="fill stroke markers" d=" M 892.438048487599 575.857370124688 C 892.438048487599 641.6763819071392 839.0811970896589 695.0332333050792 773.2621853072077 695.0332333050792 C 707.4431735247565 695.0332333050792 654.0863221268165 641.6763819071392 654.0863221268165 575.857370124688 C 654.0863221268165 510.03835834223685 707.4431735247565 456.68150694429687 773.2621853072077 456.68150694429687 C 839.0811970896589 456.68150694429687 892.438048487599 510.03835834223685 892.438048487599 575.857370124688 Z" stroke-opacity="1" stroke-linecap="round" stroke-linejoin="round" stroke-miterlimit="10"/><path fill="none" stroke="rgb(192,192,192)" paint-order="fill stroke markers" d=" M 952.0259800777945 575.857370124688 C 952.0259800777945 674.5858877983649 871.9907029808845 754.6211648952749 773.2621853072078 754.6211648952749 C 674.533667633531 754.6211648952749 594.498390536621 674.5858877983649 594.498390536621 575.857370124688 C 594.498390536621 477.1288524510112 674.533667633531 397.09357535410123 773.2621853072078 397.09357535410123 C 871.9907029808845 397.09357535410123 952.0259800777945 477.1288524510112 952.0259800777945 575.857370124688 Z" stroke-opacity="1" stroke-linecap="round" stroke-linejoin="round" stroke-miterlimit="10"/><path fill="none" stroke="rgb(192,192,192)" paint-order="fill stroke markers" d=" M 1011.61391166799 575.857370124688 C 1011.61391166799 707.4953936895904 904.9002088721099 814.2090964854704 773.2621853072076 814.2090964854704 C 641.6241617423052 814.2090964854704 534.9104589464253 707.4953936895904 534.9104589464253 575.857370124688 C 534.9104589464253 444.2193465597856 641.6241617423052 337.50564376390565 773.2621853072076 337.50564376390565 C 904.9002088721099 337.50564376390565 1011.61391166799 444.2193465597856 1011.61391166799 575.857370124688 Z" stroke-opacity="1" stroke-linecap="round" stroke-linejoin="round" stroke-miterlimit="10"/><path fill="none" stroke="rgb(192,192,192)" paint-order="fill stroke markers" d=" M 1071.2018432581856 575.857370124688 C 1071.2018432581856 740.4048995808159 937.8097147633357 873.797028075666 773.2621853072077 873.797028075666 C 608.7146558510797 873.797028075666 475.3225273562297 740.4048995808159 475.3225273562297 575.857370124688 C 475.3225273562297 411.30984066856 608.7146558510797 277.9177121737101 773.2621853072077 277.9177121737101 C 937.8097147633357 277.9177121737101 1071.2018432581856 411.30984066856 1071.2018432581856 575.857370124688 Z" stroke-opacity="1" stroke-linecap="round" stroke-linejoin="round" stroke-miterlimit="10"/><path fill="none" stroke="rgb(192,192,192)" paint-order="fill stroke markers" d=" M 1130.7897748483813 575.857370124688 C 1130.7897748483813 773.3144054720417 970.7192206545612 933.3849596658615 773.2621853072077 933.3849596658615 C 575.8051499598541 933.3849596658615 415.73459576603415 773.3144054720417 415.73459576603415 575.857370124688 C 415.73459576603415 378.4003347773345 575.8051499598541 218.3297805835145 773.2621853072077 218.3297805835145 C 970.7192206545612 218.3297805835145 1130.7897748483813 378.4003347773345 1130.7897748483813 575.857370124688 Z" stroke-opacity="1" stroke-linecap="round" stroke-linejoin="round" stroke-miterlimit="10"/><path fill="none" stroke="rgb(192,192,192)" paint-order="fill stroke markers" d=" M 1190.3777064385768 575.857370124688 C 1190.3777064385768 806.2239113632672 1003.6287265457868 992.9728912560572 773.2621853072077 992.9728912560572 C 542.8956440686285 992.9728912560572 356.14666417583857 806.2239113632672 356.14666417583857 575.857370124688 C 356.14666417583857 345.49082888610883 542.8956440686285 158.7418489933189 773.2621853072077 158.7418489933189 C 1003.6287265457868 158.7418489933189 1190.3777064385768 345.49082888610883 1190.3777064385768 575.857370124688 Z" stroke-opacity="1" stroke-linecap="round" stroke-linejoin="round" stroke-miterlimit="10"/><path fill="none" stroke="rgb(192,192,192)" paint-order="fill stroke markers" d=" M 1249.9656380287724 575.857370124688 C 1249.9656380287724 839.1334172544928 1036.5382324370123 1052.5608228462527 773.2621853072077 1052.5608228462527 C 509.9861381774029 1052.5608228462527 296.558732585643 839.1334172544928 296.558732585643 575.857370124688 C 296.558732585643 312.58132299488324 509.9861381774029 99.15391740312333 773.2621853072077 99.15391740312333 C 1036.5382324370123 99.15391740312333 1249.9656380287724 312.58132299488324 1249.9656380287724 575.857370124688 Z" stroke-opacity="1" stroke-linecap="round" stroke-linejoin="round" stroke-miterlimit="10"/><path fill="none" stroke="rgb(192,192,192)" paint-order="fill stroke markers" d=" M 1309.5535696189681 575.857370124688 C 1309.5535696189681 872.0429231457184 1069.447738328238 1112.1487544364484 773.2621853072077 1112.1487544364484 C 477.0766322861773 1112.1487544364484 236.97080099544735 872.0429231457184 236.97080099544735 575.857370124688 C 236.97080099544735 279.67181710365765 477.0766322861773 39.56598581292769 773.2621853072077 39.56598581292769 C 1069.447738328238 39.56598581292769 1309.5535696189681 279.67181710365765 1309.5535696189681 575.857370124688 Z" stroke-opacity="1" stroke-linecap="round" stroke-linejoin="round" stroke-miterlimit="10"/><path fill="none" stroke="rgb(192,192,192)" paint-order="fill stroke markers" d=" M 1369.1415012091636 575.857370124688 C 1369.1415012091636 904.952429036944 1102.3572442194636 1171.7366860266438 773.2621853072077 1171.7366860266438 C 444.1671263949517 1171.7366860266438 177.38286940525177 904.952429036944 177.38286940525177 575.857370124688 C 177.38286940525177 246.76231121243205 444.1671263949517 -20.021945777267888 773.2621853072077 -20.021945777267888 C 1102.3572442194636 -20.021945777267888 1369.1415012091636 246.76231121243205 1369.1415012091636 575.857370124688 Z" stroke-opacity="1" stroke-linecap="round" stroke-linejoin="round" stroke-miterlimit="10"/><path fill="none" stroke="rgb(192,192,192)" paint-order="fill stroke markers" d=" M 1428.729432799359 575.857370124688 C 1428.729432799359 937.8619349281696 1135.2667501106894 1231.3246176168395 773.2621853072077 1231.3246176168395 C 411.2576205037261 1231.3246176168395 117.79493781505619 937.8619349281696 117.79493781505619 575.857370124688 C 117.79493781505619 213.85280532120646 411.2576205037261 -79.60987736746347 773.2621853072077 -79.60987736746347 C 1135.2667501106894 -79.60987736746347 1428.729432799359 213.85280532120646 1428.729432799359 575.857370124688 Z" stroke-opacity="1" stroke-linecap="round" stroke-linejoin="round" stroke-miterlimit="10"/><path fill="none" stroke="rgb(192,192,192)" paint-order="fill stroke markers" d=" M 1488.3173643895548 575.857370124688 C 1488.3173643895548 970.7714408193953 1168.176256001915 1290.9125492070352 773.2621853072077 1290.9125492070352 C 378.3481146125005 1290.9125492070352 58.207006224860606 970.7714408193953 58.207006224860606 575.857370124688 C 58.207006224860606 180.94329942998087 378.3481146125005 -139.19780895765905 773.2621853072077 -139.19780895765905 C 1168.176256001915 -139.19780895765905 1488.3173643895548 180.94329942998087 1488.3173643895548 575.857370124688 Z" stroke-opacity="1" stroke-linecap="round" stroke-linejoin="round" stroke-miterlimit="10"/><path fill="none" stroke="rgb(192,192,192)" paint-order="fill stroke markers" d=" M 1547.9052959797505 575.857370124688 C 1547.9052959797505 1003.6809467106207 1201.0857618931404 1350.5004807972307 773.2621853072077 1350.5004807972307 C 345.43860872127493 1350.5004807972307 -1.3809253653349742 1003.6809467106207 -1.3809253653349742 575.857370124688 C -1.3809253653349742 148.03379353875528 345.43860872127493 -198.78574054785463 773.2621853072077 -198.78574054785463 C 1201.0857618931404 -198.78574054785463 1547.9052959797505 148.03379353875528 1547.9052959797505 575.857370124688 Z" stroke-opacity="1" stroke-linecap="round" stroke-linejoin="round" stroke-miterlimit="10"/><path fill="none" stroke="rgb(192,192,192)" paint-order="fill stroke markers" d=" M 1607.493227569946 575.857370124688 C 1607.493227569946 1036.5904526018462 1233.995267784366 1410.0884123874262 773.2621853072077 1410.0884123874262 C 312.5291028300493 1410.0884123874262 -60.968856955530555 1036.5904526018462 -60.968856955530555 575.857370124688 C -60.968856955530555 115.12428764752963 312.5291028300493 -258.3736721380502 773.2621853072077 -258.3736721380502 C 1233.995267784366 -258.3736721380502 1607.493227569946 115.12428764752963 1607.493227569946 575.857370124688 Z" stroke-opacity="1" stroke-linecap="round" stroke-linejoin="round" stroke-miterlimit="10"/><path fill="none" stroke="rgb(192,192,192)" paint-order="fill stroke markers" d=" M 1667.0811591601414 575.857370124688 C 1667.0811591601414 1069.499958493072 1266.9047736755915 1469.6763439776219 773.2621853072077 1469.6763439776219 C 279.6195969388237 1469.6763439776219 -120.55678854572614 1069.499958493072 -120.55678854572614 575.857370124688 C -120.55678854572614 82.21478175630403 279.6195969388237 -317.9616037282458 773.2621853072077 -317.9616037282458 C 1266.9047736755915 -317.9616037282458 1667.0811591601414 82.21478175630403 1667.0811591601414 575.857370124688 Z" stroke-opacity="1" stroke-linecap="round" stroke-linejoin="round" stroke-miterlimit="10"/><path fill="none" stroke="rgb(192,192,192)" paint-order="fill stroke markers" d=" M 1726.669090750337 575.857370124688 C 1726.669090750337 1102.4094643842973 1299.814279566817 1529.2642755678175 773.2621853072077 1529.2642755678175 C 246.7100910475981 1529.2642755678175 -180.14472013592172 1102.4094643842973 -180.14472013592172 575.857370124688 C -180.14472013592172 49.30527586507844 246.7100910475981 -377.5495353184414 773.2621853072077 -377.5495353184414 C 1299.814279566817 -377.5495353184414 1726.669090750337 49.30527586507844 1726.669090750337 575.857370124688 Z" stroke-opacity="1" stroke-linecap="round" stroke-linejoin="round" stroke-miterlimit="10"/><path fill="none" stroke="rgb(192,192,192)" paint-order="fill stroke markers" d=" M 1786.2570223405328 575.857370124688 C 1786.2570223405328 1135.318970275523 1332.7237854580426 1588.852207158013 773.2621853072077 1588.852207158013 C 213.8005851563725 1588.852207158013 -239.7326517261173 1135.318970275523 -239.7326517261173 575.857370124688 C -239.7326517261173 16.39576997385285 213.8005851563725 -437.13746690863695 773.2621853072077 -437.13746690863695 C 1332.7237854580426 -437.13746690863695 1786.2570223405328 16.39576997385285 1786.2570223405328 575.857370124688 Z" stroke-opacity="1" stroke-linecap="round" stroke-linejoin="round" stroke-miterlimit="10"/><path fill="none" stroke="rgb(192,192,192)" paint-order="fill stroke markers" d=" M 1845.8449539307285 575.857370124688 C 1845.8449539307285 1168.2284761667488 1365.6332913492683 1648.4401387482087 773.2621853072077 1648.4401387482087 C 180.89107926514686 1648.4401387482087 -299.320583316313 1168.2284761667488 -299.320583316313 575.857370124688 C -299.320583316313 -16.5137359173728 180.89107926514686 -496.72539849883265 773.2621853072077 -496.72539849883265 C 1365.6332913492683 -496.72539849883265 1845.8449539307285 -16.5137359173728 1845.8449539307285 575.857370124688 Z" stroke-opacity="1" stroke-linecap="round" stroke-linejoin="round" stroke-miterlimit="10"/><path fill="none" stroke="rgb(192,192,192)" paint-order="fill stroke markers" d=" M 1905.4328855209242 575.857370124688 C 1905.4328855209242 1201.1379820579743 1398.542797240494 1708.0280703384044 773.2621853072077 1708.0280703384044 C 147.9815733739212 1708.0280703384044 -358.9085149065087 1201.1379820579743 -358.9085149065087 575.857370124688 C -358.9085149065087 -49.42324180859845 147.9815733739212 -556.3133300890283 773.2621853072077 -556.3133300890283 C 1398.542797240494 -556.3133300890283 1905.4328855209242 -49.42324180859845 1905.4328855209242 575.857370124688 Z" stroke-opacity="1" stroke-linecap="round" stroke-linejoin="round" stroke-miterlimit="10"/><path fill="none" stroke="rgb(192,192,192)" paint-order="fill stroke markers" d=" M 1965.0208171111199 575.857370124688 C 1965.0208171111199 1234.0474879492 1431.4523031317199 1767.6160019286 773.2621853072077 1767.6160019286 C 115.0720674826955 1767.6160019286 -418.4964464967044 1234.0474879492 -418.4964464967044 575.857370124688 C -418.4964464967044 -82.33274769982415 115.0720674826955 -615.901261679224 773.2621853072077 -615.901261679224 C 1431.4523031317199 -615.901261679224 1965.0208171111199 -82.33274769982415 1965.0208171111199 575.857370124688 Z" stroke-opacity="1" stroke-linecap="round" stroke-linejoin="round" stroke-miterlimit="10"/><path fill="none" stroke="rgb(192,192,192)" paint-order="fill stroke markers" d=" M 2024.6087487013156 575.857370124688 C 2024.6087487013156 1266.9569938404256 1464.3618090229452 1827.2039335187958 773.2621853072077 1827.2039335187958 C 82.16256159146985 1827.2039335187958 -478.0843780869001 1266.9569938404256 -478.0843780869001 575.857370124688 C -478.0843780869001 -115.2422535910498 82.16256159146985 -675.4891932694197 773.2621853072077 -675.4891932694197 C 1464.3618090229452 -675.4891932694197 2024.6087487013156 -115.2422535910498 2024.6087487013156 575.857370124688 Z" stroke-opacity="1" stroke-linecap="round" stroke-linejoin="round" stroke-miterlimit="10"/><path fill="none" stroke="rgb(192,192,192)" paint-order="fill stroke markers" d=" M 0 575.857370124688 L 1904 575.857370124688" stroke-opacity="1" stroke-linecap="round" stroke-linejoin="round" stroke-miterlimit="10"/><path fill="none" stroke="rgb(192,192,192)" paint-order="fill stroke markers" d=" M 0 1022.3005009659627 L 1904 -76.97441157108472" stroke-opacity="1" stroke-linecap="round" stroke-linejoin="round" stroke-miterlimit="10"/><path fill="none" stroke="rgb(192,192,192)" paint-order="fill stroke markers" d=" M 0 1915.1867626485116 L 1904 -1382.6379749626296" stroke-opacity="1" stroke-linecap="round" stroke-linejoin="round" stroke-miterlimit="10"/><path fill="none" stroke="rgb(192,192,192)" paint-order="fill stroke markers" d=" M 773.2621853072077 0 L 773.2621853072077 948" stroke-opacity="1" stroke-linecap="round" stroke-linejoin="round" stroke-miterlimit="10"/><path fill="none" stroke="rgb(192,192,192)" paint-order="fill stroke markers" d=" M 0 -763.4720223991367 L 1904 2534.3527152120078" stroke-opacity="1" stroke-linecap="round" stroke-linejoin="round" stroke-miterlimit="10"/><path fill="none" stroke="rgb(192,192,192)" paint-order="fill stroke markers" d=" M 0 129.414239283413 L 1904 1228.6891518204613" stroke-opacity="1" stroke-linecap="round" stroke-linejoin="round" stroke-miterlimit="10"/><path fill="none" stroke="rgb(192,192,192)" paint-order="fill stroke markers" d=" M 0 575.8573701246876 L 1904 575.8573701246887" stroke-opacity="1" stroke-linecap="round" stroke-linejoin="round" stroke-miterlimit="10"/><path fill="none" stroke="rgb(0,0,0)" paint-order="fill stroke markers" d=" M 773.5 2.5 L 773.5 948.5" stroke-opacity="1" stroke-miterlimit="10"/><path fill="none" stroke="rgb(0,0,0)" paint-order="fill stroke markers" d=" M 773.5 1.5 L 769.5 5.5" stroke-opacity="1" stroke-miterlimit="10"/><path fill="none" stroke="rgb(0,0,0)" paint-order="fill stroke markers" d=" M 773.5 1.5 L 777.5 5.5" stroke-opacity="1" stroke-miterlimit="10"/><path fill="none" stroke="rgb(0,0,0)" paint-order="fill stroke markers" d=" M 0.5 575.5 L 1902.5 575.5" stroke-opacity="1" stroke-miterlimit="10"/><path fill="none" stroke="rgb(0,0,0)" paint-order="fill stroke markers" d=" M 1903.5 575.5 L 1899.5 571.5" stroke-opacity="1" stroke-miterlimit="10"/><path fill="none" stroke="rgb(0,0,0)" paint-order="fill stroke markers" d=" M 1903.5 575.5 L 1899.5 579.5" stroke-opacity="1" stroke-miterlimit="10"/><path fill="rgb(0,100,0)" stroke="none" paint-order="stroke fill markers" d=" M 858.2621853072077 575.857370124688 C 858.2621853072077 560.9367537314498 854.3346528255041 546.2790029613549 846.874344628885 533.357370124688 L 773.2621853072077 575.857370124688 Z" fill-opacity="0.09803921568627451"/><path fill="none" stroke="rgb(0,100,0)" paint-order="fill stroke markers" d=" M 858.2621853072077 575.857370124688 C 858.2621853072077 560.9367537314498 854.3346528255041 546.2790029613549 846.874344628885 533.357370124688 L 773.2621853072077 575.857370124688 Z" stroke-opacity="0.6980392156862745" stroke-linecap="round" stroke-linejoin="round" stroke-miterlimit="10" stroke-width="2.5"/><text fill="rgb(0,100,0)" stroke="none" font-family="geogebra-sans-serif, sans-serif" font-size="16px" font-style="normal" font-weight="normal" text-decoration="normal" x="876" y="554" text-anchor="start" dominant-baseline="alphabetic" fill-opacity="1">θ</text><text fill="none" stroke="rgb(255,255,255)" font-family="geogebra-sans-serif, sans-serif" font-size="16px" font-style="normal" font-weight="normal" text-decoration="normal" x="876" y="554" text-anchor="start" dominant-baseline="alphabetic" stroke-opacity="1" stroke-linejoin="bevel" stroke-miterlimit="10" stroke-width="3">θ</text><text fill="rgb(0,100,0)" stroke="none" font-family="geogebra-sans-serif, sans-serif" font-size="16px" font-style="normal" font-weight="normal" text-decoration="normal" x="876" y="554" text-anchor="start" dominant-baseline="alphabetic" fill-opacity="1">θ</text><path fill="none" stroke="rgb(0,0,0)" paint-order="fill stroke markers" d=" M 120.03198866302358 953 L 1779.3366623140078 -5" stroke-opacity="0.6980392156862745" stroke-linecap="round" stroke-linejoin="round" stroke-miterlimit="10" stroke-width="2.5"/><text fill="rgb(0,0,0)" stroke="none" font-family="geogebra-sans-serif, sans-serif" font-size="16px" font-style="normal" font-weight="normal" text-decoration="normal" x="217" y="893" text-anchor="start" dominant-baseline="alphabetic" fill-opacity="1">l</text><text fill="none" stroke="rgb(255,255,255)" font-family="geogebra-sans-serif, sans-serif" font-size="16px" font-style="normal" font-weight="normal" text-decoration="normal" x="217" y="893" text-anchor="start" dominant-baseline="alphabetic" stroke-opacity="1" stroke-linejoin="bevel" stroke-miterlimit="10" stroke-width="3">l</text><text fill="rgb(0,0,0)" stroke="none" font-family="geogebra-sans-serif, sans-serif" font-size="16px" font-style="normal" font-weight="normal" text-decoration="normal" x="217" y="893" text-anchor="start" dominant-baseline="alphabetic" fill-opacity="1">l</text><path fill="none" stroke="rgb(0,0,0)" paint-order="fill stroke markers" d=" M 773.2621853072077 575.857370124688 L 864.3471546863829 523.2694385344925" stroke-opacity="1" stroke-linecap="round" stroke-linejoin="round" stroke-miterlimit="10"/><path fill="rgb(0,0,0)" stroke="none" paint-order="stroke fill markers" fill-rule="evenodd" d=" M 876.471510339365 516.2694385344925 L 866.0971546863829 526.300527447738 L 862.5971546863829 520.2383496212469 Z" fill-opacity="1"/><text fill="rgb(0,0,0)" stroke="none" font-family="geogebra-sans-serif, sans-serif" font-size="16px" font-style="normal" font-weight="normal" text-decoration="normal" x="879" y="497" text-anchor="start" dominant-baseline="alphabetic" fill-opacity="1">u,u'</text><text fill="none" stroke="rgb(255,255,255)" font-family="geogebra-sans-serif, sans-serif" font-size="16px" font-style="normal" font-weight="normal" text-decoration="normal" x="879" y="497" text-anchor="start" dominant-baseline="alphabetic" stroke-opacity="1" stroke-linejoin="bevel" stroke-miterlimit="10" stroke-width="3">u,u'</text><text fill="rgb(0,0,0)" stroke="none" font-family="geogebra-sans-serif, sans-serif" font-size="16px" font-style="normal" font-weight="normal" text-decoration="normal" x="879" y="497" text-anchor="start" dominant-baseline="alphabetic" fill-opacity="1">u,u'</text><path fill="none" stroke="rgb(0,0,0)" paint-order="fill stroke markers" d=" M 773.2621853072077 575.857370124688 L 720.6742537170121 484.77240074551287" stroke-opacity="1" stroke-linecap="round" stroke-linejoin="round" stroke-miterlimit="10"/><path fill="rgb(0,0,0)" stroke="none" paint-order="stroke fill markers" fill-rule="evenodd" d=" M 713.6742537170121 472.6480450925307 L 723.7053426302576 483.02240074551287 L 717.6431648037666 486.52240074551287 Z" fill-opacity="1"/><text fill="rgb(0,0,0)" stroke="none" font-family="geogebra-sans-serif, sans-serif" font-size="16px" font-style="normal" font-weight="normal" text-decoration="normal" x="740" y="526" text-anchor="start" dominant-baseline="alphabetic" fill-opacity="1">v</text><text fill="none" stroke="rgb(255,255,255)" font-family="geogebra-sans-serif, sans-serif" font-size="16px" font-style="normal" font-weight="normal" text-decoration="normal" x="740" y="526" text-anchor="start" dominant-baseline="alphabetic" stroke-opacity="1" stroke-linejoin="bevel" stroke-miterlimit="10" stroke-width="3">v</text><text fill="rgb(0,0,0)" stroke="none" font-family="geogebra-sans-serif, sans-serif" font-size="16px" font-style="normal" font-weight="normal" text-decoration="normal" x="740" y="526" text-anchor="start" dominant-baseline="alphabetic" fill-opacity="1">v</text><path fill="none" stroke="rgb(0,0,0)" paint-order="fill stroke markers" d=" M 773.2621853072077 575.857370124688 L 825.8501168974033 666.9423395038632" stroke-opacity="1" stroke-linecap="round" stroke-linejoin="round" stroke-miterlimit="10"/><path fill="rgb(0,0,0)" stroke="none" paint-order="stroke fill markers" fill-rule="evenodd" d=" M 832.8501168974033 679.0666951568453 L 822.8190279841577 668.6923395038632 L 828.8812058106488 665.1923395038632 Z" fill-opacity="1"/><text fill="rgb(0,0,0)" stroke="none" font-family="geogebra-sans-serif, sans-serif" font-size="16px" font-style="normal" font-weight="normal" text-decoration="normal" x="806" y="625" text-anchor="start" dominant-baseline="alphabetic" fill-opacity="1">v'</text><text fill="none" stroke="rgb(255,255,255)" font-family="geogebra-sans-serif, sans-serif" font-size="16px" font-style="normal" font-weight="normal" text-decoration="normal" x="806" y="625" text-anchor="start" dominant-baseline="alphabetic" stroke-opacity="1" stroke-linejoin="bevel" stroke-miterlimit="10" stroke-width="3">v'</text><text fill="rgb(0,0,0)" stroke="none" font-family="geogebra-sans-serif, sans-serif" font-size="16px" font-style="normal" font-weight="normal" text-decoration="normal" x="806" y="625" text-anchor="start" dominant-baseline="alphabetic" fill-opacity="1">v'</text><path fill="rgb(77,77,255)" stroke="none" paint-order="stroke fill markers" d=" M 778.2621853072077 575.857370124688 C 778.2621853072077 578.618793873842 776.0236090563617 580.857370124688 773.2621853072077 580.857370124688 C 770.5007615580537 580.857370124688 768.2621853072077 578.618793873842 768.2621853072077 575.857370124688 C 768.2621853072077 573.095946375534 770.5007615580537 570.857370124688 773.2621853072077 570.857370124688 C 776.0236090563617 570.857370124688 778.2621853072077 573.095946375534 778.2621853072077 575.857370124688 Z" fill-opacity="1"/><path fill="none" stroke="rgb(0,0,0)" paint-order="fill stroke markers" d=" M 778.2621853072077 575.857370124688 C 778.2621853072077 578.618793873842 776.0236090563617 580.857370124688 773.2621853072077 580.857370124688 C 770.5007615580537 580.857370124688 768.2621853072077 578.618793873842 768.2621853072077 575.857370124688 C 768.2621853072077 573.095946375534 770.5007615580537 570.857370124688 773.2621853072077 570.857370124688 C 776.0236090563617 570.857370124688 778.2621853072077 573.095946375534 778.2621853072077 575.857370124688 Z" stroke-opacity="1" stroke-linecap="round" stroke-linejoin="round" stroke-miterlimit="10"/><text fill="rgb(77,77,255)" stroke="none" font-family="geogebra-sans-serif, sans-serif" font-size="16px" font-style="normal" font-weight="normal" text-decoration="normal" x="777" y="566" text-anchor="start" dominant-baseline="alphabetic" fill-opacity="1">O</text><text fill="none" stroke="rgb(255,255,255)" font-family="geogebra-sans-serif, sans-serif" font-size="16px" font-style="normal" font-weight="normal" text-decoration="normal" x="777" y="566" text-anchor="start" dominant-baseline="alphabetic" stroke-opacity="1" stroke-linejoin="bevel" stroke-miterlimit="10" stroke-width="3">O</text><text fill="rgb(77,77,255)" stroke="none" font-family="geogebra-sans-serif, sans-serif" font-size="16px" font-style="normal" font-weight="normal" text-decoration="normal" x="777" y="566" text-anchor="start" dominant-baseline="alphabetic" fill-opacity="1">O</text></g></g></svg>